<svg width="25" height="25" viewBox="0 0 25 25" fill="none" xmlns="http://www.w3.org/2000/svg">
<g id="econometrics 1" clip-path="url(#clip0_2055_12681)">
<g id="Group">
<path id="Vector" d="M4.8112 16.6678C5.06259 16.8174 5.27844 17.0121 5.45069 17.2371H8.70585V14.0806L7.16235 13.1236C6.81858 12.9105 6.71268 12.459 6.9258 12.1153C7.13896 11.7716 7.59024 11.6657 7.93415 11.8787L9.43821 12.8112L10.7492 11.9984C8.13433 8.41283 8.73485 3.33221 12.2155 0.464604C6.48209 -1.45611 0.467662 2.8135 0.440516 8.94559C0.426357 12.1976 2.15769 15.0882 4.8112 16.6678Z" fill="#87A0AF"/>
<path id="Vector_2" d="M5.90918 18.7018H12.8421V20.3618H5.90918V18.7018Z" fill="#87A0AF"/>
<path id="Vector_3" d="M10.1709 14.0806V17.237H13.2902C13.4558 17.0185 13.6625 16.8312 13.9029 16.6896C14.5686 16.2978 15.1797 15.8199 15.7213 15.273C14.1914 14.9285 12.8175 14.1677 11.725 13.1163C11.6833 13.1434 11.3831 13.3291 10.1709 14.0806Z" fill="#87A0AF"/>
<path id="Subtract" fill-rule="evenodd" clip-rule="evenodd" d="M10.5957 7.03291C10.5957 3.1757 13.7372 0.00231934 17.5775 0.00231934C21.4273 0.00231934 24.5592 3.18317 24.5592 7.03291C24.5592 11.0793 21.0847 14.3553 16.952 13.9861C13.3808 13.6654 10.5957 10.6611 10.5957 7.03291ZM18.4286 4.08198H17.7273C17.0779 4.08198 16.5887 4.21244 16.2597 4.47335C15.9307 4.73426 15.7662 5.07959 15.7662 5.50932C15.7662 5.75489 15.7965 5.96975 15.8571 6.15393C15.9177 6.33043 16.0043 6.49541 16.1169 6.64889C16.2381 6.80237 16.3853 6.94817 16.5584 7.0863C16.7403 7.21676 16.9524 7.35489 17.1948 7.50069L17.987 7.97263L15.7013 11H14L16.0519 8.29493C15.7576 8.11076 15.4935 7.92275 15.2597 7.73091C15.0346 7.53906 14.8442 7.3357 14.6883 7.12083C14.5325 6.90596 14.4113 6.67575 14.3247 6.43019C14.2468 6.17695 14.2078 5.89685 14.2078 5.5899C14.2078 5.2062 14.2814 4.85704 14.4286 4.54242C14.5844 4.22011 14.8095 3.94769 15.1039 3.72515C15.3983 3.49493 15.7619 3.31843 16.1948 3.19565C16.6364 3.0652 17.1429 2.99997 17.7143 2.99997H20V11H18.4286V4.08198Z" fill="#87A0AF"/>
<path id="Vector_4" d="M7.08008 22.7052C7.08008 23.9705 8.10947 24.9999 9.37478 24.9999C10.6401 24.9999 11.6695 23.9705 11.6695 22.7052V21.8264H7.08008V22.7052Z" fill="#87A0AF"/>
</g>
</g>
<defs>
<clipPath id="clip0_2055_12681">
<rect width="25" height="25" fill="white"/>
</clipPath>
</defs>
</svg>
