<svg width="32" height="32" viewBox="0 0 32 32" fill="none" xmlns="http://www.w3.org/2000/svg">
<g clip-path="url(#clip0_2055_9258)">
<path d="M0 16C0 7.16344 7.16344 0 16 0C24.8366 0 32 7.16344 32 16C32 24.8366 24.8366 32 16 32C7.16344 32 0 24.8366 0 16Z" fill="#F5F5F5"/>
<path fill-rule="evenodd" clip-rule="evenodd" d="M10.9997 7.875C9.73402 7.875 8.70801 8.90101 8.70801 10.1667V21.8333C8.70801 23.099 9.73402 24.125 10.9997 24.125H15.9997C17.2653 24.125 18.2913 23.099 18.2913 21.8333V21C18.2913 20.6548 18.0115 20.375 17.6663 20.375C17.3212 20.375 17.0413 20.6548 17.0413 21V21.8333C17.0413 22.4086 16.575 22.875 15.9997 22.875H10.9997C10.4244 22.875 9.95801 22.4086 9.95801 21.8333V10.1667C9.95801 9.59137 10.4244 9.125 10.9997 9.125H15.9997C16.575 9.125 17.0413 9.59137 17.0413 10.1667V11C17.0413 11.3452 17.3212 11.625 17.6663 11.625C18.0115 11.625 18.2913 11.3452 18.2913 11V10.1667C18.2913 8.90101 17.2653 7.875 15.9997 7.875H10.9997ZM19.7244 12.6414C19.9685 12.3973 20.3642 12.3973 20.6083 12.6414L22.9357 14.9688C23.5052 15.5383 23.5052 16.4617 22.9357 17.0312L20.6083 19.3586C20.3642 19.6027 19.9685 19.6027 19.7244 19.3586C19.4803 19.1145 19.4803 18.7188 19.7244 18.4747L21.5741 16.625H13.4997C13.1545 16.625 12.8747 16.3452 12.8747 16C12.8747 15.6548 13.1545 15.375 13.4997 15.375H21.5741L19.7244 13.5253C19.4803 13.2812 19.4803 12.8855 19.7244 12.6414Z" fill="#1D2336"/>
</g>
<defs>
<clipPath id="clip0_2055_9258">
<path d="M0 16C0 7.16344 7.16344 0 16 0C24.8366 0 32 7.16344 32 16C32 24.8366 24.8366 32 16 32C7.16344 32 0 24.8366 0 16Z" fill="white"/>
</clipPath>
</defs>
</svg>
