<svg width="24" height="24" viewBox="0 0 24 24" fill="#00DA72" xmlns="http://www.w3.org/2000/svg">
<path d="M16.6089 7.94942L14.0762 17.4014C13.5895 19.2179 11.7241 20.2949 9.90764 19.8082C8.09121 19.3215 7.0142 17.456 7.50091 15.6396L10.2538 5.36566C10.5577 4.23141 11.7249 3.55753 12.8592 3.86145C13.9934 4.16537 14.6673 5.33257 14.3634 6.46681L12.0509 15.0969C11.9298 15.549 11.4609 15.8197 11.0088 15.6986C10.5567 15.5775 10.286 15.1085 10.4071 14.6565L12.4993 6.84827L11.2664 6.51792L9.17424 14.3261C8.87032 15.4604 9.54421 16.6276 10.6785 16.9315C11.8127 17.2354 12.9799 16.5615 13.2838 15.4273L15.5962 6.79716C16.083 4.98073 15.0059 3.11529 13.1895 2.62858C11.3731 2.14186 9.50764 3.21888 9.02093 5.03531L6.26804 15.3092C5.59853 17.8079 7.07867 20.3716 9.5773 21.0411C12.0759 21.7106 14.6396 20.2304 15.3091 17.7318L17.8418 8.27977L16.6089 7.94942Z" fill="#00DA72"/>
</svg>
