<svg width="20" height="20" viewBox="0 0 20 20" fill="none" xmlns="http://www.w3.org/2000/svg">
<g id="Icons">
<path id="Union"  stroke="currentColor" clip-rule="evenodd" d="M12.1129 3.17303C13.0893 2.19672 14.6722 2.19672 15.6485 3.17303L16.827 4.35154C17.8033 5.32785 17.8033 6.91076 16.827 7.88707L8.16657 16.5475C8.05023 16.6638 7.90207 16.7431 7.74074 16.7754L3.32132 17.6593C2.73822 17.7759 2.22412 17.2618 2.34074 16.6787L3.22463 12.2593C3.25689 12.098 3.33619 11.9498 3.45252 11.8335L12.1129 3.17303ZM14.7646 4.05691L15.9431 5.23542C16.4313 5.72358 16.4313 6.51504 15.9431 7.00319L14.6173 8.32904L11.671 5.38276L12.9968 4.05691C13.485 3.56876 14.2764 3.56876 14.7646 4.05691ZM10.7871 6.26665L4.42561 12.6281L3.68904 16.311L7.37189 15.5744L13.7334 9.21292L10.7871 6.26665Z" fill="#262628"/>
</g>
</svg>
