<svg xmlns="http://www.w3.org/2000/svg"  width="31" height="31" viewBox="0 0 31 31" fill="none"><g filter="url(#a)"><circle cx="16.057" cy="14" r="11.057" fill="#fff"/></g><path d="m18.711 11.494-1.665 6.215a2.238 2.238 0 1 1-4.324-1.158l1.81-6.756a1.4 1.4 0 0 1 2.703.724l-1.521 5.675a.561.561 0 0 1-.685.396.561.561 0 0 1-.396-.686l1.376-5.134-.81-.217-1.377 5.134a1.4 1.4 0 0 0 2.703.724l1.52-5.675a2.238 2.238 0 1 0-4.324-1.158l-1.81 6.756a3.076 3.076 0 0 0 2.176 3.769 3.076 3.076 0 0 0 3.77-2.176l1.665-6.216-.81-.217Z" fill="#323232"/><defs><filter id="a" x=".344" y=".615" width="31" height="31" filterUnits="userSpaceOnUse" color-interpolation-filters="sRGB"><feFlood flood-opacity="0" result="BackgroundImageFix"/><feColorMatrix in="SourceAlpha" values="0 0 0 0 0 0 0 0 0 0 0 0 0 0 0 0 0 0 127 0" result="hardAlpha"/><feOffset dy="2.328"/><feGaussianBlur stdDeviation="2.328"/><feComposite in2="hardAlpha" operator="out"/><feColorMatrix values="0 0 0 0 0 0 0 0 0 0 0 0 0 0 0 0 0 0 0.1 0"/><feBlend in2="BackgroundImageFix" result="effect1_dropShadow_2070_8068"/><feBlend in="SourceGraphic" in2="effect1_dropShadow_2070_8068" result="shape"/></filter></defs></svg>