<svg xmlns="http://www.w3.org/2000/svg" width="17" height="16" fill="none"><path fill-rule="evenodd" clip-rule="evenodd" d="M.626 3.482C-.066 1.405 2.057-.496 4.046.422L15.546 5.73c1.937.894 1.937 3.646 0 4.54L4.045 15.578c-1.988.918-4.111-.983-3.419-3.06l1.242-3.727a2.5 2.5 0 0 0 0-1.582L.626 3.482Zm2.896-1.926 11.501 5.31c.969.446.969 1.822 0 2.269L3.522 14.444c-.995.458-2.056-.492-1.71-1.53l1.242-3.728a3.75 3.75 0 0 0 .14-.561h7.271a.625.625 0 1 0 0-1.25h-7.27a3.749 3.749 0 0 0-.14-.56L1.811 3.086c-.346-1.039.715-1.99 1.71-1.53Z" fill="#fff"/></svg>