<svg width="25" height="26" viewBox="0 0 25 26" fill="none" xmlns="http://www.w3.org/2000/svg">
<g id="settings solid 1" clip-path="url(#clip0_2055_12479)">
<path id="Vector" d="M22.6985 9.63354H22.1678C21.9954 9.09399 21.7778 8.56987 21.5172 8.06631L21.8931 7.69043C22.8045 6.78003 22.7801 5.32104 21.8934 4.4353L20.7845 3.32642C19.8993 2.44004 18.44 2.41436 17.5293 3.32607L17.1532 3.70225C16.6496 3.4417 16.1254 3.22412 15.5859 3.05171V2.5209C15.5859 1.2519 14.5535 0.219482 13.2845 0.219482H11.7155C10.4465 0.219482 9.41406 1.2519 9.41406 2.5209V3.05171C8.87456 3.22407 8.35039 3.44165 7.84683 3.70225L7.471 3.32642C6.56216 2.4165 5.10293 2.43784 4.21592 3.32612L3.10688 4.43506C2.22056 5.32041 2.19492 6.77949 3.10659 7.69019L3.48276 8.06636C3.22217 8.56992 3.00464 9.09399 2.83223 9.63359H2.30146C1.03247 9.63354 0 10.666 0 11.935V13.504C0 14.773 1.03247 15.8054 2.30146 15.8054H2.83223C3.00464 16.345 3.22217 16.8691 3.48276 17.3727L3.10688 17.7485C2.19551 18.6589 2.21992 20.1179 3.10659 21.0037L4.21553 22.1125C5.10073 22.9989 6.56001 23.0246 7.47065 22.1129L7.84683 21.7367C8.35039 21.9973 8.87456 22.2148 9.41406 22.3873V22.9181C9.41406 24.1871 10.4465 25.2195 11.7155 25.2195H13.2845C14.5535 25.2195 15.586 24.1871 15.586 22.9181V22.3873C16.1255 22.2149 16.6497 21.9973 17.1532 21.7367L17.5291 22.1125C18.4379 23.0225 19.8971 23.0011 20.7841 22.1128L21.8932 21.0039C22.7795 20.1185 22.8051 18.6594 21.8935 17.7487L21.5173 17.3726C21.7779 16.869 21.9954 16.3449 22.1678 15.8053H22.6986C23.9676 15.8053 25 14.7729 25 13.5039V11.9349C25 10.666 23.9675 9.63354 22.6985 9.63354ZM12.5 18.1589C9.50064 18.1589 7.06055 15.7188 7.06055 12.7195C7.06055 9.72017 9.50064 7.28003 12.5 7.28003C15.4994 7.28003 17.9395 9.72017 17.9395 12.7195C17.9395 15.7188 15.4994 18.1589 12.5 18.1589Z" />
</g>
<defs>
<clipPath id="clip0_2055_12479">
<rect width="25" height="25" fill="white" transform="translate(0 0.219482)"/>
</clipPath>
</defs>
</svg>
