<svg xmlns="http://www.w3.org/2000/svg" width="32" height="32" viewBox="0 0 32 32" fill="none"><g filter="url(#a)"><circle cx="16.057" cy="14" r="11.057" fill="#fff"/></g><path d="M13.52 19.352c-.747 0-1.358-.589-1.358-1.309V12.66c0-.643.521-1.164 1.164-1.164h4.462c.643 0 1.164.521 1.164 1.164v5.383c0 .72-.611 1.31-1.358 1.31H13.52ZM18.064 9.532h.912a.655.655 0 1 1 0 1.31h-6.838a.655.655 0 1 1 0-1.31h.912c.302 0 .593-.118.81-.328.217-.209.508-.327.809-.327h1.776c.302 0 .593.118.81.327.216.21.508.328.809.328Z" fill="#212121"/><defs><filter id="a" x=".344" y=".615" width="32" height="32
" filterUnits="userSpaceOnUse" color-interpolation-filters="sRGB"><feFlood flood-opacity="0" result="BackgroundImageFix"/><feColorMatrix in="SourceAlpha" values="0 0 0 0 0 0 0 0 0 0 0 0 0 0 0 0 0 0 127 0" result="hardAlpha"/><feOffset dy="2.328"/><feGaussianBlur stdDeviation="2.328"/><feComposite in2="hardAlpha" operator="out"/><feColorMatrix values="0 0 0 0 0 0 0 0 0 0 0 0 0 0 0 0 0 0 0.1 0"/><feBlend in2="BackgroundImageFix" result="effect1_dropShadow_2070_7105"/><feBlend in="SourceGraphic" in2="effect1_dropShadow_2070_7105" result="shape"/></filter></defs></svg>